<?xml version="1.0" standalone="no"?>
<!DOCTYPE svg PUBLIC "-//W3C//DTD SVG 20010904//EN"
 "http://www.w3.org/TR/2001/REC-SVG-20010904/DTD/svg10.dtd">
<svg version="1.0" xmlns="http://www.w3.org/2000/svg"
 width="872.000000pt" height="872.000000pt" viewBox="0 0 872.000000 872.000000"
 preserveAspectRatio="xMidYMid meet">
<metadata>
Created by potrace 1.11, written by Peter Selinger 2001-2013
</metadata>
<g transform="translate(0.000000,872.000000) scale(0.100000,-0.100000)"
fill="#000000" stroke="none">
<path d="M10 4355 l0 -4345 4345 0 4345 0 0 4345 0 4345 -4345 0 -4345 0 0
-4345z m8680 0 l0 -4335 -4330 0 -4330 0 0 4335 0 4335 4330 0 4330 0 0 -4335z"/>
<path d="M1807 7053 c-4 -3 -7 -210 -7 -460 0 -487 1 -502 51 -537 47 -32 119
-9 138 45 7 21 11 155 11 395 l0 364 405 0 405 0 0 -1179 0 -1180 -296 -3
-296 -3 -24 -28 c-26 -30 -32 -83 -13 -119 25 -47 35 -48 721 -48 412 0 656 4
680 10 21 6 44 21 53 33 17 25 20 79 4 109 -23 43 -61 48 -354 48 l-275 0 0
1180 0 1180 405 0 405 0 0 -372 c0 -352 1 -375 20 -405 35 -58 118 -56 157 4
17 25 18 61 18 498 l0 470 -1101 3 c-605 1 -1104 -1 -1107 -5z"/>
<path d="M4570 7053 c-56 -9 -71 -14 -90 -33 -29 -29 -27 -91 4 -127 23 -27
29 -28 125 -31 l101 -4 0 -1178 0 -1178 -119 -3 c-109 -4 -122 -6 -144 -27
-32 -30 -39 -68 -21 -110 25 -60 37 -62 486 -62 364 0 406 2 438 18 65 32 76
104 24 153 -25 24 -30 24 -245 27 l-219 3 0 1180 c0 1144 1 1179 19 1179 15 0
64 -105 257 -542 131 -299 301 -687 379 -863 l141 -320 115 -3 114 -3 325 753
c454 1055 419 978 441 978 19 0 19 -31 19 -1179 l0 -1180 -220 -3 -220 -3 -26
-26 c-51 -52 -28 -139 43 -158 24 -7 189 -11 431 -11 421 0 441 2 476 51 19
27 20 58 5 92 -19 42 -47 51 -171 55 l-118 4 0 1179 0 1179 85 0 c113 0 150
15 166 68 9 32 9 45 -2 68 -27 55 -48 59 -342 59 l-269 0 -366 -847 c-202
-466 -370 -844 -374 -840 -4 4 -173 385 -376 847 l-369 840 -239 1 c-131 1
-250 0 -264 -3z"/>
<path d="M1800 3478 c0 -284 4 -467 11 -491 19 -71 106 -94 158 -43 l26 26 3
380 3 380 404 0 405 0 0 -1180 0 -1179 -295 -3 -295 -3 -25 -26 c-45 -44 -32
-122 24 -150 34 -18 1288 -26 1351 -9 55 15 80 44 80 95 0 32 -6 47 -26 66
l-26 24 -294 3 -294 3 0 1179 0 1180 405 0 404 0 3 -380 3 -380 26 -26 c52
-51 139 -28 158 43 7 24 11 207 11 491 l0 452 -1110 0 -1110 0 0 -452z"/>
<path d="M4513 3915 c-38 -16 -53 -42 -53 -88 0 -69 51 -96 183 -97 l67 0 0
-1179 0 -1179 -120 -4 c-113 -3 -121 -4 -145 -29 -29 -29 -36 -76 -15 -113 26
-49 39 -51 450 -54 438 -4 479 0 511 51 23 38 24 59 5 96 -24 46 -50 51 -276
51 l-210 0 0 1181 0 1180 21 -3 c18 -2 83 -145 399 -863 l377 -860 108 -3 c60
-1 112 1 117 6 5 5 174 393 377 863 311 722 372 854 390 857 l21 3 0 -1180 0
-1180 -219 -3 c-214 -3 -220 -4 -244 -26 -34 -32 -41 -66 -22 -106 29 -60 33
-61 445 -64 206 -2 399 0 429 3 92 11 133 73 97 144 -22 41 -55 51 -176 51
l-110 0 0 1180 0 1180 73 0 c131 0 182 28 182 101 0 29 -7 46 -28 66 l-27 28
-282 0 -282 0 -366 -846 c-201 -466 -367 -845 -370 -844 -3 2 -171 384 -375
849 l-370 845 -265 0 c-203 0 -272 -3 -297 -14z"/>
</g>
</svg>
